<?xml version="1.0" encoding="UTF-8"?><svg id="Layer_1" xmlns="http://www.w3.org/2000/svg" viewBox="0 0 892.15 153.7"><defs><style>.cls-1,.cls-2{font-family:PoetsenOne-Regular, 'Poetsen One';font-size:140px;stroke-width:6px;}.cls-1,.cls-2,.cls-3{stroke:#332220;}.cls-1,.cls-4,.cls-5,.cls-6,.cls-7{fill:none;}.cls-5,.cls-8,.cls-9{letter-spacing:.04em;}.cls-8,.cls-3{fill:#f3715c;}.cls-10{letter-spacing:.05em;}.cls-11{letter-spacing:.04em;}.cls-6{letter-spacing:.09em;}.cls-3{stroke-miterlimit:10;stroke-width:5.07px;}.cls-7{letter-spacing:.08em;}</style></defs><text class="cls-2" transform="translate(410.92 122.7)"><tspan class="cls-8" x="0" y="0">C</tspan><tspan class="cls-5" x="91.98" y="0">an</tspan><tspan class="cls-6" x="268.65" y="0">l</tspan><tspan class="cls-7" x="322.97" y="0">a</tspan><tspan class="cls-4" x="412.43" y="0">s</tspan></text><text class="cls-1" transform="translate(89.7 122.7)"><tspan class="cls-9" x="0" y="0">o</tspan><tspan class="cls-10" x="89.32" y="0">s</tspan><tspan class="cls-11" x="162.12" y="0">e</tspan><tspan x="242.2" y="0">l</tspan></text><path class="cls-3" d="M26.41,125.37c-32.6,0-28.47-29.1-7.59-31.29,24.08-2.52,30.62-12.98,27.77-48.27-17.72-1.57-31.11-8.75-31.11-17.37,0-9.77,17.2-9.34,38.41-9.34s38.41-.43,38.41,9.34c0,6.89-8.55,12.86-21.03,15.78,8.24,22.5,12.43,50.34.07,65.07-10.74,11.2-23.93,16.08-44.94,16.08Z"/></svg>