<?xml version="1.0" encoding="UTF-8"?><svg id="_3" xmlns="http://www.w3.org/2000/svg" viewBox="0 0 968 330"><defs><style>.cls-1{fill:#332220;}.cls-2{fill:#f3715c;}</style></defs><rect class="cls-1" x="0" y="55.1" width="968" height="219.81" rx="30.31" ry="30.31"/><path class="cls-2" d="M32.4,236.63v-13.82c0-2.21,1.89-3.95,4.09-3.74,1.16.11,2.37.17,3.64.17,4.73,0,8.24-1.18,10.54-3.55,2.29-2.37,3.44-5.98,3.44-10.86v-111.7c0-2.08,1.68-3.76,3.76-3.76h16.13c2.08,0,3.76,1.68,3.76,3.76v111.05c0,12.33-2.83,21.5-8.49,27.52-5.66,6.02-14.3,9.03-25.91,9.03-2.83,0-5.37-.12-7.64-.37-1.9-.21-3.32-1.83-3.32-3.74Z"/><path class="cls-2" d="M102.28,232.14c-6.16-6.59-9.25-15.91-9.25-27.95v-79.12c0-12.04,3.08-21.36,9.25-27.95,6.16-6.59,15.05-9.89,26.66-9.89s20.5,3.3,26.66,9.89c6.16,6.59,9.25,15.91,9.25,27.95v79.12c0,12.04-3.08,21.36-9.25,27.95-6.17,6.59-15.05,9.89-26.66,9.89s-20.5-3.3-26.66-9.89ZM141.19,205.69v-82.13c0-9.89-4.08-14.83-12.25-14.83s-12.25,4.94-12.25,14.83v82.13c0,9.89,4.08,14.83,12.25,14.83s12.25-4.95,12.25-14.83Z"/><path class="cls-2" d="M185.48,232.25c-5.88-6.52-8.81-15.87-8.81-28.06v-4.84c0-2.08,1.68-3.76,3.76-3.76h14.84c2.08,0,3.76,1.68,3.76,3.76v6.56c0,9.75,4.08,14.62,12.25,14.62,4.01,0,7.06-1.18,9.14-3.55,2.08-2.37,3.12-6.2,3.12-11.5,0-6.3-1.43-11.86-4.3-16.66-2.87-4.8-8.17-10.57-15.91-17.31-9.75-8.6-16.55-16.37-20.42-23.33-3.87-6.95-5.8-14.8-5.8-23.54,0-11.9,3.01-21.1,9.03-27.63,6.02-6.52,14.76-9.78,26.23-9.78s19.89,3.26,25.69,9.78c5.81,6.52,8.71,15.88,8.71,28.06v2.48c0,2.08-1.68,3.76-3.76,3.76h-14.84c-2.08,0-3.76-1.68-3.76-3.76v-3.98c0-5.16-1-8.92-3.01-11.29-2.01-2.36-4.95-3.55-8.82-3.55-7.88,0-11.83,4.8-11.83,14.4,0,5.45,1.47,10.54,4.41,15.27,2.94,4.73,8.28,10.46,16.02,17.2,9.89,8.6,16.7,16.41,20.42,23.44,3.73,7.02,5.59,15.26,5.59,24.72,0,12.33-3.05,21.79-9.14,28.38-6.09,6.59-14.94,9.89-26.55,9.89s-20.14-3.26-26.01-9.78Z"/><path class="cls-2" d="M264.49,89.38h56.98c2.08,0,3.76,1.68,3.76,3.76v13.98c0,2.08-1.68,3.76-3.76,3.76h-33.33c-2.08,0-3.76,1.68-3.76,3.76v32.26c0,2.08,1.68,3.76,3.76,3.76h24.95c2.08,0,3.76,1.68,3.76,3.76v13.98c0,2.08-1.68,3.76-3.76,3.76h-24.95c-2.08,0-3.76,1.68-3.76,3.76v38.7c0,2.08,1.68,3.76,3.76,3.76h33.33c2.08,0,3.76,1.68,3.76,3.76v13.98c0,2.08-1.68,3.76-3.76,3.76h-56.98c-2.08,0-3.76-1.68-3.76-3.76V93.14c0-2.08,1.68-3.76,3.76-3.76Z"/><path class="cls-2" d="M342.53,89.38h16.13c2.08,0,3.76,1.68,3.76,3.76v121.48c0,2.08,1.68,3.76,3.76,3.76h31.4c2.08,0,3.76,1.68,3.76,3.76v13.98c0,2.08-1.68,3.76-3.76,3.76h-55.04c-2.08,0-3.76-1.68-3.76-3.76V93.14c0-2.08,1.68-3.76,3.76-3.76Z"/><path class="cls-2" d="M454.55,232.35c-5.95-6.45-8.92-15.55-8.92-27.3v-80.84c0-11.75,2.97-20.85,8.92-27.31,5.95-6.45,14.58-9.67,25.91-9.67s19.96,3.23,25.91,9.67c5.95,6.45,8.92,15.55,8.92,27.31v12.15c0,2.08-1.68,3.76-3.76,3.76h-14.84c-2.08,0-3.76-1.68-3.76-3.76v-13.66c0-9.32-3.94-13.98-11.83-13.98s-11.83,4.66-11.83,13.98v84.06c0,9.17,3.94,13.76,11.83,13.76s11.83-4.59,11.83-13.76v-19.25c0-2.08,1.68-3.76,3.76-3.76h14.84c2.08,0,3.76,1.68,3.76,3.76v17.53c0,11.75-2.98,20.86-8.92,27.3-5.95,6.45-14.59,9.68-25.91,9.68s-19.96-3.23-25.91-9.68Z"/><path class="cls-2" d="M550.94,89.38h25.64c1.84,0,3.41,1.34,3.71,3.16l23.29,142.98c.37,2.29-1.39,4.36-3.71,4.36h-15.97c-1.87,0-3.46-1.37-3.72-3.22l-3.84-26.66v.43h-23.62c-1.87,0-3.45,1.37-3.72,3.22l-3.36,23.02c-.27,1.85-1.85,3.22-3.72,3.22h-14.26c-2.32,0-4.08-2.08-3.71-4.36l23.29-142.98c.3-1.82,1.87-3.16,3.71-3.16ZM569.22,190c2.29,0,4.04-2.02,3.72-4.29l-9.93-70.1h-.43l-9.73,70.11c-.31,2.26,1.44,4.28,3.72,4.28h12.64Z"/><path class="cls-2" d="M619.44,89.38h22.99c1.72,0,3.22,1.16,3.64,2.83l22.28,87.26h.43v-86.33c0-2.08,1.68-3.76,3.76-3.76h13.55c2.08,0,3.76,1.68,3.76,3.76v142.98c0,2.08-1.68,3.76-3.76,3.76h-17.62c-1.71,0-3.21-1.16-3.64-2.82l-27.65-107.05h-.43v106.11c0,2.08-1.68,3.76-3.76,3.76h-13.55c-2.08,0-3.76-1.68-3.76-3.76V93.14c0-2.08,1.68-3.76,3.76-3.76Z"/><path class="cls-2" d="M711.25,89.38h16.13c2.08,0,3.76,1.68,3.76,3.76v121.48c0,2.08,1.68,3.76,3.76,3.76h31.4c2.08,0,3.76,1.68,3.76,3.76v13.98c0,2.08-1.68,3.76-3.76,3.76h-55.04c-2.08,0-3.76-1.68-3.76-3.76V93.14c0-2.08,1.68-3.76,3.76-3.76Z"/><path class="cls-2" d="M803.78,89.38h25.64c1.84,0,3.41,1.34,3.71,3.16l23.29,142.98c.37,2.29-1.39,4.36-3.71,4.36h-15.97c-1.87,0-3.46-1.37-3.72-3.22l-3.84-26.66v.43h-23.62c-1.87,0-3.45,1.37-3.72,3.22l-3.36,23.02c-.27,1.85-1.85,3.22-3.72,3.22h-14.26c-2.32,0-4.08-2.08-3.71-4.36l23.29-142.98c.3-1.82,1.87-3.16,3.71-3.16ZM822.05,190c2.29,0,4.04-2.02,3.72-4.29l-9.93-70.1h-.43l-9.73,70.11c-.31,2.26,1.44,4.28,3.72,4.28h12.64Z"/><path class="cls-2" d="M872.6,232.25c-5.88-6.52-8.81-15.87-8.81-28.06v-4.84c0-2.08,1.68-3.76,3.76-3.76h14.84c2.08,0,3.76,1.68,3.76,3.76v6.56c0,9.75,4.08,14.62,12.25,14.62,4.01,0,7.06-1.18,9.14-3.55,2.08-2.37,3.12-6.2,3.12-11.5,0-6.3-1.43-11.86-4.3-16.66-2.87-4.8-8.17-10.57-15.91-17.31-9.75-8.6-16.55-16.37-20.42-23.33-3.87-6.95-5.8-14.8-5.8-23.54,0-11.9,3.01-21.1,9.03-27.63,6.02-6.52,14.76-9.78,26.23-9.78s19.89,3.26,25.69,9.78c5.81,6.52,8.71,15.88,8.71,28.06v2.48c0,2.08-1.68,3.76-3.76,3.76h-14.84c-2.08,0-3.76-1.68-3.76-3.76v-3.98c0-5.16-1-8.92-3.01-11.29-2.01-2.36-4.95-3.55-8.82-3.55-7.88,0-11.83,4.8-11.83,14.4,0,5.45,1.47,10.54,4.41,15.27,2.94,4.73,8.28,10.46,16.02,17.2,9.89,8.6,16.7,16.41,20.42,23.44,3.73,7.02,5.59,15.26,5.59,24.72,0,12.33-3.05,21.79-9.14,28.38-6.09,6.59-14.94,9.89-26.55,9.89s-20.14-3.26-26.01-9.78Z"/></svg>