<?xml version="1.0" encoding="UTF-8"?><svg id="_2" xmlns="http://www.w3.org/2000/svg" viewBox="0 0 300 300"><defs><style>.cls-1{fill:#fff;}.cls-2{fill:#332220;}</style></defs><rect class="cls-1" x="0" y="0" width="300" height="300" rx="150" ry="150"/><path class="cls-2" d="M48.19,160.3h28.22c0,9.18,5.15,13.78,15.23,13.78s15.23-4.59,15.23-13.78v-33.15h-39.09v-24.19h68.66v57.34c0,25.2-14.78,37.97-43.79,37.97s-45.92-13.55-44.46-37.97Z"/><path class="cls-2" d="M222.35,160.3h29.57c0,23.3-20.05,38.08-50.51,38.08-33.38,0-54.88-18.93-54.88-48.38s21.5-48.38,54.88-48.38c30.46,0,50.51,14.78,50.51,38.08h-29.57c-1.12-8.29-8.4-13.89-21.17-13.89-15.9,0-24.98,8.74-24.98,24.08s9.74,24.3,25.87,24.3c12.21,0,19.15-5.6,20.27-13.89Z"/></svg>