<?xml version="1.0" encoding="UTF-8"?><svg id="Layer_1" xmlns="http://www.w3.org/2000/svg" viewBox="0 0 908.05 153.7"><defs><style>.cls-1{font-family:PoetsenOne-Regular, 'Poetsen One';font-size:140px;}.cls-1,.cls-2{fill:none;stroke:#332220;stroke-width:6px;}.cls-3{letter-spacing:.05em;}.cls-4{letter-spacing:.04em;}.cls-5{letter-spacing:.04em;}.cls-6{letter-spacing:.09em;}.cls-7{letter-spacing:.08em;}.cls-2{stroke-miterlimit:10;}</style></defs><text class="cls-1" transform="translate(426.82 122.7)"><tspan class="cls-4" x="0" y="0">Can</tspan><tspan class="cls-6" x="268.65" y="0">l</tspan><tspan class="cls-7" x="322.97" y="0">a</tspan><tspan x="412.43" y="0">s</tspan></text><text class="cls-1" transform="translate(105.61 122.7)"><tspan class="cls-4" x="0" y="0">o</tspan><tspan class="cls-3" x="89.32" y="0">s</tspan><tspan class="cls-5" x="162.12" y="0">e</tspan><tspan x="242.2" y="0">l</tspan></text><path class="cls-2" d="M31.24,138.7c-38.57,0-33.69-34.43-8.98-37.02,28.49-2.98,36.23-15.36,32.86-57.11-20.97-1.86-36.8-10.35-36.8-20.55,0-11.56,20.34-11.05,45.44-11.05s45.44-.5,45.44,11.05c0,8.15-10.12,15.21-24.88,18.67,9.75,26.62,14.71,59.56.08,76.98-12.71,13.25-28.31,19.02-53.17,19.02Z"/></svg>